<mxfile host="app.diagrams.net" agent="Mozilla/5.0 (Windows NT 10.0; Win64; x64) AppleWebKit/537.36 (KHTML, like Gecko) Chrome/133.0.0.0 Safari/537.36" version="26.0.11">
  <diagram name="Page-1" id="5f0bae14-7c28-e335-631c-24af17079c00">
    <mxGraphModel dx="1562" dy="810" grid="1" gridSize="10" guides="1" tooltips="1" connect="1" arrows="1" fold="1" page="1" pageScale="1" pageWidth="1100" pageHeight="850" background="none" math="0" shadow="0">
      <root>
        <mxCell id="0" />
        <mxCell id="1" parent="0" />
        <mxCell id="Slwi_mcL8imp2NTaujXc-2" value="" style="rounded=0;whiteSpace=wrap;html=1;align=center;" parent="1" vertex="1">
          <mxGeometry x="230" y="230" width="990" height="500" as="geometry" />
        </mxCell>
        <mxCell id="Slwi_mcL8imp2NTaujXc-3" value="&lt;b&gt;NutriFit.AppHost &lt;/b&gt;.NET Aspire" style="text;html=1;align=center;verticalAlign=middle;whiteSpace=wrap;rounded=0;" parent="1" vertex="1">
          <mxGeometry x="240" y="250" width="120" height="30" as="geometry" />
        </mxCell>
        <mxCell id="Slwi_mcL8imp2NTaujXc-4" value="User" style="shape=umlActor;verticalLabelPosition=bottom;verticalAlign=top;html=1;outlineConnect=0;fillColor=light-dark(#005f56, #1f2f1e);gradientColor=light-dark(#005f56, #295a0d);strokeColor=light-dark(#005f56, #446e2c);direction=east;" parent="1" vertex="1">
          <mxGeometry x="727.5" y="120" width="35" height="60" as="geometry" />
        </mxCell>
        <mxCell id="Slwi_mcL8imp2NTaujXc-6" value="Workout-Read" style="shape=cylinder3;whiteSpace=wrap;html=1;boundedLbl=1;backgroundOutline=1;size=15;fillColor=#dae8fc;strokeColor=#6c8ebf;" parent="1" vertex="1">
          <mxGeometry x="715" y="290" width="60" height="80" as="geometry" />
        </mxCell>
        <mxCell id="Slwi_mcL8imp2NTaujXc-7" value="Workout-Write" style="shape=cylinder3;whiteSpace=wrap;html=1;boundedLbl=1;backgroundOutline=1;size=15;fillColor=#dae8fc;strokeColor=#6c8ebf;" parent="1" vertex="1">
          <mxGeometry x="790" y="290" width="60" height="80" as="geometry" />
        </mxCell>
        <mxCell id="Slwi_mcL8imp2NTaujXc-8" value="Nutrition-Write" style="shape=cylinder3;whiteSpace=wrap;html=1;boundedLbl=1;backgroundOutline=1;size=15;fillColor=#d5e8d4;strokeColor=#82b366;" parent="1" vertex="1">
          <mxGeometry x="650" y="380" width="60" height="80" as="geometry" />
        </mxCell>
        <mxCell id="Slwi_mcL8imp2NTaujXc-9" value="Nutrition-Read" style="shape=cylinder3;whiteSpace=wrap;html=1;boundedLbl=1;backgroundOutline=1;size=15;fillColor=#d5e8d4;strokeColor=#82b366;" parent="1" vertex="1">
          <mxGeometry x="570" y="380" width="60" height="80" as="geometry" />
        </mxCell>
        <mxCell id="c8qFC6k8u6gRKysFvK-F-1" value="" style="rounded=0;whiteSpace=wrap;html=1;fillColor=none;" vertex="1" parent="1">
          <mxGeometry x="250" y="310" width="180" height="140" as="geometry" />
        </mxCell>
        <mxCell id="c8qFC6k8u6gRKysFvK-F-4" value="&lt;b&gt;Postgres &lt;/b&gt;PostgresSQL" style="text;html=1;align=center;verticalAlign=middle;whiteSpace=wrap;rounded=0;" vertex="1" parent="1">
          <mxGeometry x="580" y="270" width="60" height="30" as="geometry" />
        </mxCell>
        <mxCell id="c8qFC6k8u6gRKysFvK-F-7" value="&lt;b&gt;NutriFit-Migration-Service &lt;/b&gt;ServiceWorker" style="text;html=1;align=center;verticalAlign=middle;whiteSpace=wrap;rounded=0;" vertex="1" parent="1">
          <mxGeometry x="260" y="330" width="150" height="30" as="geometry" />
        </mxCell>
        <mxCell id="c8qFC6k8u6gRKysFvK-F-8" value="" style="rounded=0;whiteSpace=wrap;html=1;fillColor=#d5e8d4;strokeColor=#82b366;" vertex="1" parent="1">
          <mxGeometry x="500" y="630" width="130" height="60" as="geometry" />
        </mxCell>
        <mxCell id="c8qFC6k8u6gRKysFvK-F-9" value="" style="rounded=0;whiteSpace=wrap;html=1;fillColor=none;strokeColor=default;" vertex="1" parent="1">
          <mxGeometry x="990" y="310" width="200" height="190" as="geometry" />
        </mxCell>
        <mxCell id="c8qFC6k8u6gRKysFvK-F-10" value="" style="rounded=0;whiteSpace=wrap;html=1;fillColor=#dae8fc;strokeColor=#6c8ebf;" vertex="1" parent="1">
          <mxGeometry x="775" y="630" width="125" height="50" as="geometry" />
        </mxCell>
        <mxCell id="c8qFC6k8u6gRKysFvK-F-12" value="&lt;b&gt;Nutrition &lt;/b&gt;REST API" style="text;html=1;align=center;verticalAlign=middle;whiteSpace=wrap;rounded=0;" vertex="1" parent="1">
          <mxGeometry x="510" y="640" width="60" height="30" as="geometry" />
        </mxCell>
        <mxCell id="c8qFC6k8u6gRKysFvK-F-13" value="&lt;b&gt;Workout &lt;/b&gt;REST API" style="text;html=1;align=center;verticalAlign=middle;whiteSpace=wrap;rounded=0;" vertex="1" parent="1">
          <mxGeometry x="790" y="640" width="60" height="30" as="geometry" />
        </mxCell>
        <mxCell id="c8qFC6k8u6gRKysFvK-F-14" value="&lt;b&gt;NutriFit-BfF&lt;/b&gt;&lt;div&gt;REST API serves Angular App&lt;/div&gt;" style="text;html=1;align=center;verticalAlign=middle;whiteSpace=wrap;rounded=0;" vertex="1" parent="1">
          <mxGeometry x="1010" y="320" width="170" height="30" as="geometry" />
        </mxCell>
        <mxCell id="c8qFC6k8u6gRKysFvK-F-17" value="" style="endArrow=classic;html=1;rounded=0;entryX=0;entryY=0.5;entryDx=0;entryDy=0;exitX=1.012;exitY=0.449;exitDx=0;exitDy=0;exitPerimeter=0;" edge="1" parent="1" source="c8qFC6k8u6gRKysFvK-F-1">
          <mxGeometry width="50" height="50" relative="1" as="geometry">
            <mxPoint x="420" y="435" as="sourcePoint" />
            <mxPoint x="550" y="370" as="targetPoint" />
          </mxGeometry>
        </mxCell>
        <mxCell id="c8qFC6k8u6gRKysFvK-F-18" value="EF Core" style="edgeLabel;html=1;align=center;verticalAlign=middle;resizable=0;points=[];" vertex="1" connectable="0" parent="c8qFC6k8u6gRKysFvK-F-17">
          <mxGeometry x="-0.051" y="-2" relative="1" as="geometry">
            <mxPoint as="offset" />
          </mxGeometry>
        </mxCell>
        <mxCell id="c8qFC6k8u6gRKysFvK-F-20" value="" style="endArrow=classic;html=1;rounded=0;exitX=0.442;exitY=0.009;exitDx=0;exitDy=0;exitPerimeter=0;" edge="1" parent="1" source="c8qFC6k8u6gRKysFvK-F-8">
          <mxGeometry width="50" height="50" relative="1" as="geometry">
            <mxPoint x="510" y="590" as="sourcePoint" />
            <mxPoint x="598.4000000000001" y="460" as="targetPoint" />
          </mxGeometry>
        </mxCell>
        <mxCell id="c8qFC6k8u6gRKysFvK-F-27" value="EF Core" style="edgeLabel;html=1;align=center;verticalAlign=middle;resizable=0;points=[];" vertex="1" connectable="0" parent="c8qFC6k8u6gRKysFvK-F-20">
          <mxGeometry x="0.2033" y="2" relative="1" as="geometry">
            <mxPoint as="offset" />
          </mxGeometry>
        </mxCell>
        <mxCell id="c8qFC6k8u6gRKysFvK-F-21" value="" style="endArrow=classic;html=1;rounded=0;exitX=0.442;exitY=0;exitDx=0;exitDy=0;exitPerimeter=0;" edge="1" parent="1" source="c8qFC6k8u6gRKysFvK-F-8">
          <mxGeometry width="50" height="50" relative="1" as="geometry">
            <mxPoint x="630" y="510" as="sourcePoint" />
            <mxPoint x="680" y="460" as="targetPoint" />
          </mxGeometry>
        </mxCell>
        <mxCell id="c8qFC6k8u6gRKysFvK-F-28" value="EF Core" style="edgeLabel;html=1;align=center;verticalAlign=middle;resizable=0;points=[];" vertex="1" connectable="0" parent="c8qFC6k8u6gRKysFvK-F-21">
          <mxGeometry x="0.2211" y="-4" relative="1" as="geometry">
            <mxPoint y="1" as="offset" />
          </mxGeometry>
        </mxCell>
        <mxCell id="c8qFC6k8u6gRKysFvK-F-22" value="" style="endArrow=classic;html=1;rounded=0;exitX=0.5;exitY=0;exitDx=0;exitDy=0;" edge="1" parent="1" source="c8qFC6k8u6gRKysFvK-F-10">
          <mxGeometry width="50" height="50" relative="1" as="geometry">
            <mxPoint x="700" y="420" as="sourcePoint" />
            <mxPoint x="750" y="370" as="targetPoint" />
          </mxGeometry>
        </mxCell>
        <mxCell id="c8qFC6k8u6gRKysFvK-F-30" value="EF Core" style="edgeLabel;html=1;align=center;verticalAlign=middle;resizable=0;points=[];" vertex="1" connectable="0" parent="c8qFC6k8u6gRKysFvK-F-22">
          <mxGeometry x="0.49" y="3" relative="1" as="geometry">
            <mxPoint as="offset" />
          </mxGeometry>
        </mxCell>
        <mxCell id="c8qFC6k8u6gRKysFvK-F-24" value="" style="endArrow=classic;html=1;rounded=0;exitX=0.5;exitY=0;exitDx=0;exitDy=0;" edge="1" parent="1" source="c8qFC6k8u6gRKysFvK-F-10">
          <mxGeometry width="50" height="50" relative="1" as="geometry">
            <mxPoint x="775" y="420" as="sourcePoint" />
            <mxPoint x="825" y="370" as="targetPoint" />
          </mxGeometry>
        </mxCell>
        <mxCell id="c8qFC6k8u6gRKysFvK-F-31" value="EF Core" style="edgeLabel;html=1;align=center;verticalAlign=middle;resizable=0;points=[];" vertex="1" connectable="0" parent="c8qFC6k8u6gRKysFvK-F-24">
          <mxGeometry x="0.488" y="-1" relative="1" as="geometry">
            <mxPoint as="offset" />
          </mxGeometry>
        </mxCell>
        <mxCell id="c8qFC6k8u6gRKysFvK-F-25" value="" style="endArrow=classic;html=1;rounded=0;entryX=0.669;entryY=-0.006;entryDx=0;entryDy=0;entryPerimeter=0;exitX=-0.004;exitY=0.603;exitDx=0;exitDy=0;exitPerimeter=0;" edge="1" parent="1" source="c8qFC6k8u6gRKysFvK-F-9" target="c8qFC6k8u6gRKysFvK-F-8">
          <mxGeometry width="50" height="50" relative="1" as="geometry">
            <mxPoint x="990" y="505.5072463768115" as="sourcePoint" />
            <mxPoint x="800" y="500" as="targetPoint" />
          </mxGeometry>
        </mxCell>
        <mxCell id="c8qFC6k8u6gRKysFvK-F-32" value="HTTPS" style="edgeLabel;html=1;align=center;verticalAlign=middle;resizable=0;points=[];" vertex="1" connectable="0" parent="c8qFC6k8u6gRKysFvK-F-25">
          <mxGeometry x="0.3071" y="1" relative="1" as="geometry">
            <mxPoint as="offset" />
          </mxGeometry>
        </mxCell>
        <mxCell id="c8qFC6k8u6gRKysFvK-F-26" value="" style="endArrow=classic;html=1;rounded=0;exitX=0;exitY=0.615;exitDx=0;exitDy=0;exitPerimeter=0;" edge="1" parent="1" source="c8qFC6k8u6gRKysFvK-F-9" target="c8qFC6k8u6gRKysFvK-F-10">
          <mxGeometry width="50" height="50" relative="1" as="geometry">
            <mxPoint x="1110" y="605.1764705882354" as="sourcePoint" />
            <mxPoint x="1000" y="600" as="targetPoint" />
          </mxGeometry>
        </mxCell>
        <mxCell id="c8qFC6k8u6gRKysFvK-F-33" value="HTTPS" style="edgeLabel;html=1;align=center;verticalAlign=middle;resizable=0;points=[];" vertex="1" connectable="0" parent="c8qFC6k8u6gRKysFvK-F-26">
          <mxGeometry x="0.3247" y="-1" relative="1" as="geometry">
            <mxPoint as="offset" />
          </mxGeometry>
        </mxCell>
        <mxCell id="c8qFC6k8u6gRKysFvK-F-34" value="" style="endArrow=classic;html=1;rounded=0;entryX=0.25;entryY=0;entryDx=0;entryDy=0;" edge="1" parent="1" target="c8qFC6k8u6gRKysFvK-F-9">
          <mxGeometry width="50" height="50" relative="1" as="geometry">
            <mxPoint x="770" y="180" as="sourcePoint" />
            <mxPoint x="860" y="130" as="targetPoint" />
          </mxGeometry>
        </mxCell>
        <mxCell id="c8qFC6k8u6gRKysFvK-F-36" value="" style="rounded=0;whiteSpace=wrap;html=1;fillColor=none;" vertex="1" parent="1">
          <mxGeometry x="550" y="250" width="360" height="230" as="geometry" />
        </mxCell>
      </root>
    </mxGraphModel>
  </diagram>
</mxfile>
